<svg xmlns="http://www.w3.org/2000/svg" width="724pt" height="634pt" viewBox="18.80 18.80 723.75 634.40">
<g id="graph0" class="graph" transform="scale(1 1) rotate(0) translate(28.8 642.8)">
<title>logic</title>
<polygon fill="white" stroke="none" points="-28.8,28.8 -28.8,-642.8 624.67,-642.8 624.67,28.8 -28.8,28.8" />
<text xml:space="preserve" text-anchor="start" x="156.56" y="-598.65" font-family="Helvetica,sans-Serif" font-weight="bold" font-size="13.00">Logic Diagram — samples/demo_emp_types</text>

<g id="node1" class="node">
<title>TRIGGER</title>
<polygon fill="#e8f5e9" stroke="none" points="8,-7.5 8,-40.5 182,-40.5 182,-7.5 8,-7.5" />
<text xml:space="preserve" text-anchor="start" x="17" y="-22.05" font-family="Helvetica,sans-Serif" font-weight="bold" font-size="11.00" fill="#27ae60">⚡ CommissionOrder inserted</text>
<polygon fill="none" stroke="#27ae60" stroke-width="2" points="9,-8.5 9,-39.5 181,-39.5 181,-8.5 9,-8.5" />
</g>

<g id="node2" class="node">
<title>CommissionOrder</title>
<polygon fill="#4a6fa5" stroke="none" points="331,-25 331,-41 437,-41 437,-25 331,-25" />
<text xml:space="preserve" text-anchor="start" x="333" y="-29.55" font-family="Helvetica,sans-Serif" font-weight="bold" font-size="11.00" fill="white"> CommissionOrder </text>
<polygon fill="#b8cce8" stroke="none" points="331,-7 331,-25 352.67,-25 352.67,-7 331,-7" />
<text xml:space="preserve" text-anchor="start" x="340.33" y="-13" font-family="Helvetica,sans-Serif" font-size="11.00"> </text>
<polygon fill="#dbe4f0" stroke="none" points="352.67,-7 352.67,-25 415.33,-25 415.33,-7 352.67,-7" />
<text xml:space="preserve" text-anchor="start" x="355.67" y="-13" font-family="Helvetica,sans-Serif" font-size="11.00" fill="#1a1a2e"> amount </text>
<polygon fill="#b8cce8" stroke="none" points="415.33,-7 415.33,-25 437,-25 437,-7 415.33,-7" />
<text xml:space="preserve" text-anchor="start" x="424.67" y="-13" font-family="Helvetica,sans-Serif" font-size="11.00"> </text>
<polygon fill="none" stroke="#c0392b" stroke-width="3" points="329.5,-5.5 329.5,-42.5 438.5,-42.5 438.5,-5.5 329.5,-5.5" />
</g>

<g id="edge4" class="edge">
<title>TRIGGER-&gt;CommissionOrder</title>
<path fill="none" stroke="#27ae60" stroke-width="2" d="M189.83,-24C229.24,-24 268.65,-24 308.06,-24" />
<polygon fill="#27ae60" stroke="#27ae60" stroke-width="2" points="317.85,-24 307.85,-28.5 315.29,-24.5 307.85,-24.5 307.85,-24 307.85,-23.5 315.29,-23.5 307.85,-19.5 317.85,-24" />
</g>

<g id="node4" class="node">
<title>Employee</title>
<polygon fill="#4a6fa5" stroke="none" points="337.75,-416.25 337.75,-432.25 584.25,-432.25 584.25,-416.25 337.75,-416.25" />
<text xml:space="preserve" text-anchor="start" x="432.12" y="-420.8" font-family="Helvetica,sans-Serif" font-weight="bold" font-size="11.00" fill="white"> Employee </text>
<polygon fill="#b8cce8" stroke="none" points="337.75,-398.25 337.75,-416.25 344.75,-416.25 344.75,-398.25 337.75,-398.25" />
<text xml:space="preserve" text-anchor="start" x="339.75" y="-404.25" font-family="Helvetica,sans-Serif" font-size="11.00"> </text>
<polygon fill="#dbe4f0" stroke="none" points="344.75,-398.25 344.75,-416.25 577.25,-416.25 577.25,-398.25 344.75,-398.25" />
<text xml:space="preserve" text-anchor="start" x="347.75" y="-403.8" font-family="Helvetica,sans-Serif" font-size="11.00" fill="#1a1a2e"> salary </text>
<text xml:space="preserve" text-anchor="start" x="382.25" y="-403.8" font-family="Helvetica,sans-Serif" font-size="11.00"> </text>
<text xml:space="preserve" text-anchor="start" x="385.25" y="-403.8" font-family="Helvetica,sans-Serif" font-size="9.00" fill="#e67e22">= _employee_salary(row)</text>
<polygon fill="#b8cce8" stroke="none" points="577.25,-398.25 577.25,-416.25 584.25,-416.25 584.25,-398.25 577.25,-398.25" />
<text xml:space="preserve" text-anchor="start" x="579.25" y="-404.25" font-family="Helvetica,sans-Serif" font-size="11.00"> </text>
<polygon fill="#b8cce8" stroke="none" points="337.75,-380.25 337.75,-398.25 344.75,-398.25 344.75,-380.25 337.75,-380.25" />
<text xml:space="preserve" text-anchor="start" x="339.75" y="-386.25" font-family="Helvetica,sans-Serif" font-size="11.00"> </text>
<polygon fill="#dbe4f0" stroke="none" points="344.75,-380.25 344.75,-398.25 577.25,-398.25 577.25,-380.25 344.75,-380.25" />
<text xml:space="preserve" text-anchor="start" x="347.75" y="-386.25" font-family="Helvetica,sans-Serif" font-size="11.00" fill="#1a1a2e"> commission_total </text>
<polygon fill="#b8cce8" stroke="none" points="577.25,-380.25 577.25,-398.25 584.25,-398.25 584.25,-380.25 577.25,-380.25" />
<text xml:space="preserve" text-anchor="start" x="579.25" y="-386.25" font-family="Helvetica,sans-Serif" font-size="11.00"> </text>
<polygon fill="#b8cce8" stroke="none" points="337.75,-362.25 337.75,-380.25 344.75,-380.25 344.75,-362.25 337.75,-362.25" />
<text xml:space="preserve" text-anchor="start" x="339.75" y="-368.25" font-family="Helvetica,sans-Serif" font-size="11.00"> </text>
<polygon fill="#dbe4f0" stroke="none" points="344.75,-362.25 344.75,-380.25 577.25,-380.25 577.25,-362.25 344.75,-362.25" />
<text xml:space="preserve" text-anchor="start" x="347.75" y="-368.25" font-family="Helvetica,sans-Serif" font-size="11.00" fill="#1a1a2e"> type </text>
<polygon fill="#b8cce8" stroke="none" points="577.25,-362.25 577.25,-380.25 584.25,-380.25 584.25,-362.25 577.25,-362.25" />
<text xml:space="preserve" text-anchor="start" x="579.25" y="-368.25" font-family="Helvetica,sans-Serif" font-size="11.00"> </text>
<polygon fill="#b8cce8" stroke="none" points="337.75,-344.25 337.75,-362.25 344.75,-362.25 344.75,-344.25 337.75,-344.25" />
<text xml:space="preserve" text-anchor="start" x="339.75" y="-350.25" font-family="Helvetica,sans-Serif" font-size="11.00"> </text>
<polygon fill="#dbe4f0" stroke="none" points="344.75,-344.25 344.75,-362.25 577.25,-362.25 577.25,-344.25 344.75,-344.25" />
<text xml:space="preserve" text-anchor="start" x="347.75" y="-350.25" font-family="Helvetica,sans-Serif" font-size="11.00" fill="#1a1a2e"> hours_worked </text>
<polygon fill="#b8cce8" stroke="none" points="577.25,-344.25 577.25,-362.25 584.25,-362.25 584.25,-344.25 577.25,-344.25" />
<text xml:space="preserve" text-anchor="start" x="579.25" y="-350.25" font-family="Helvetica,sans-Serif" font-size="11.00"> </text>
<polygon fill="#b8cce8" stroke="none" points="337.75,-326.25 337.75,-344.25 344.75,-344.25 344.75,-326.25 337.75,-326.25" />
<text xml:space="preserve" text-anchor="start" x="339.75" y="-332.25" font-family="Helvetica,sans-Serif" font-size="11.00"> </text>
<polygon fill="#dbe4f0" stroke="none" points="344.75,-326.25 344.75,-344.25 577.25,-344.25 577.25,-326.25 344.75,-326.25" />
<text xml:space="preserve" text-anchor="start" x="347.75" y="-332.25" font-family="Helvetica,sans-Serif" font-size="11.00" fill="#1a1a2e"> hourly_rate </text>
<polygon fill="#b8cce8" stroke="none" points="577.25,-326.25 577.25,-344.25 584.25,-344.25 584.25,-326.25 577.25,-326.25" />
<text xml:space="preserve" text-anchor="start" x="579.25" y="-332.25" font-family="Helvetica,sans-Serif" font-size="11.00"> </text>
<polygon fill="#b8cce8" stroke="none" points="337.75,-308.25 337.75,-326.25 344.75,-326.25 344.75,-308.25 337.75,-308.25" />
<text xml:space="preserve" text-anchor="start" x="339.75" y="-314.25" font-family="Helvetica,sans-Serif" font-size="11.00"> </text>
<polygon fill="#dbe4f0" stroke="none" points="344.75,-308.25 344.75,-326.25 577.25,-326.25 577.25,-308.25 344.75,-308.25" />
<text xml:space="preserve" text-anchor="start" x="347.75" y="-314.25" font-family="Helvetica,sans-Serif" font-size="11.00" fill="#1a1a2e"> base_salary </text>
<polygon fill="#b8cce8" stroke="none" points="577.25,-308.25 577.25,-326.25 584.25,-326.25 584.25,-308.25 577.25,-308.25" />
<text xml:space="preserve" text-anchor="start" x="579.25" y="-314.25" font-family="Helvetica,sans-Serif" font-size="11.00"> </text>
<polygon fill="#b8cce8" stroke="none" points="337.75,-290.25 337.75,-308.25 344.75,-308.25 344.75,-290.25 337.75,-290.25" />
<text xml:space="preserve" text-anchor="start" x="339.75" y="-296.25" font-family="Helvetica,sans-Serif" font-size="11.00"> </text>
<polygon fill="#dbe4f0" stroke="none" points="344.75,-290.25 344.75,-308.25 577.25,-308.25 577.25,-290.25 344.75,-290.25" />
<text xml:space="preserve" text-anchor="start" x="347.75" y="-295.8" font-family="Helvetica,sans-Serif" font-size="11.00" fill="#1a1a2e"> union_dues </text>
<text xml:space="preserve" text-anchor="start" x="409.25" y="-295.8" font-family="Helvetica,sans-Serif" font-size="11.00"> </text>
<text xml:space="preserve" text-anchor="start" x="412.25" y="-295.8" font-family="Helvetica,sans-Serif" font-size="9.00" fill="#e67e22">= _union_dues(row)</text>
<polygon fill="#b8cce8" stroke="none" points="577.25,-290.25 577.25,-308.25 584.25,-308.25 584.25,-290.25 577.25,-290.25" />
<text xml:space="preserve" text-anchor="start" x="579.25" y="-296.25" font-family="Helvetica,sans-Serif" font-size="11.00"> </text>
<polygon fill="#b8cce8" stroke="none" points="337.75,-272.25 337.75,-290.25 344.75,-290.25 344.75,-272.25 337.75,-272.25" />
<text xml:space="preserve" text-anchor="start" x="339.75" y="-278.25" font-family="Helvetica,sans-Serif" font-size="11.00"> </text>
<polygon fill="#dbe4f0" stroke="none" points="344.75,-272.25 344.75,-290.25 577.25,-290.25 577.25,-272.25 344.75,-272.25" />
<text xml:space="preserve" text-anchor="start" x="347.75" y="-278.25" font-family="Helvetica,sans-Serif" font-size="11.00" fill="#1a1a2e"> union_id </text>
<polygon fill="#b8cce8" stroke="none" points="577.25,-272.25 577.25,-290.25 584.25,-290.25 584.25,-272.25 577.25,-272.25" />
<text xml:space="preserve" text-anchor="start" x="579.25" y="-278.25" font-family="Helvetica,sans-Serif" font-size="11.00"> </text>
<polygon fill="#b8cce8" stroke="none" points="337.75,-254.25 337.75,-272.25 344.75,-272.25 344.75,-254.25 337.75,-254.25" />
<text xml:space="preserve" text-anchor="start" x="339.75" y="-260.25" font-family="Helvetica,sans-Serif" font-size="11.00"> </text>
<polygon fill="#dbe4f0" stroke="none" points="344.75,-254.25 344.75,-272.25 577.25,-272.25 577.25,-254.25 344.75,-254.25" />
<text xml:space="preserve" text-anchor="start" x="347.75" y="-260.25" font-family="Helvetica,sans-Serif" font-size="11.00" fill="#1a1a2e"> union </text>
<polygon fill="#b8cce8" stroke="none" points="577.25,-254.25 577.25,-272.25 584.25,-272.25 584.25,-254.25 577.25,-254.25" />
<text xml:space="preserve" text-anchor="start" x="579.25" y="-260.25" font-family="Helvetica,sans-Serif" font-size="11.00"> </text>
<polygon fill="#b8cce8" stroke="none" points="337.75,-236.25 337.75,-254.25 344.75,-254.25 344.75,-236.25 337.75,-236.25" />
<text xml:space="preserve" text-anchor="start" x="339.75" y="-242.25" font-family="Helvetica,sans-Serif" font-size="11.00"> </text>
<polygon fill="#dbe4f0" stroke="none" points="344.75,-236.25 344.75,-254.25 577.25,-254.25 577.25,-236.25 344.75,-236.25" />
<text xml:space="preserve" text-anchor="start" x="347.75" y="-242.25" font-family="Helvetica,sans-Serif" font-size="11.00" fill="#1a1a2e"> max_hourly_weekly_salary </text>
<polygon fill="#b8cce8" stroke="none" points="577.25,-236.25 577.25,-254.25 584.25,-254.25 584.25,-236.25 577.25,-236.25" />
<text xml:space="preserve" text-anchor="start" x="579.25" y="-242.25" font-family="Helvetica,sans-Serif" font-size="11.00"> </text>
<polygon fill="#b8cce8" stroke="none" points="337.75,-218.25 337.75,-236.25 344.75,-236.25 344.75,-218.25 337.75,-218.25" />
<text xml:space="preserve" text-anchor="start" x="339.75" y="-224.25" font-family="Helvetica,sans-Serif" font-size="11.00"> </text>
<polygon fill="#dbe4f0" stroke="none" points="344.75,-218.25 344.75,-236.25 577.25,-236.25 577.25,-218.25 344.75,-218.25" />
<text xml:space="preserve" text-anchor="start" x="347.75" y="-223.8" font-family="Helvetica,sans-Serif" font-size="11.00" fill="#1a1a2e"> total_compensation </text>
<text xml:space="preserve" text-anchor="start" x="446.75" y="-223.8" font-family="Helvetica,sans-Serif" font-size="11.00"> </text>
<text xml:space="preserve" text-anchor="start" x="449.75" y="-223.8" font-family="Helvetica,sans-Serif" font-size="9.00" fill="#e67e22">= (salary or Decimal(0)) + De...</text>
<polygon fill="#b8cce8" stroke="none" points="577.25,-218.25 577.25,-236.25 584.25,-236.25 584.25,-218.25 577.25,-218.25" />
<text xml:space="preserve" text-anchor="start" x="579.25" y="-224.25" font-family="Helvetica,sans-Serif" font-size="11.00"> </text>
<polygon fill="#b8cce8" stroke="none" points="337.75,-200.25 337.75,-218.25 344.75,-218.25 344.75,-200.25 337.75,-200.25" />
<text xml:space="preserve" text-anchor="start" x="339.75" y="-206.25" font-family="Helvetica,sans-Serif" font-size="11.00"> </text>
<polygon fill="#dbe4f0" stroke="none" points="344.75,-200.25 344.75,-218.25 577.25,-218.25 577.25,-200.25 344.75,-200.25" />
<text xml:space="preserve" text-anchor="start" x="347.75" y="-205.8" font-family="Helvetica,sans-Serif" font-size="11.00" fill="#1a1a2e"> military_stipend </text>
<text xml:space="preserve" text-anchor="start" x="428" y="-205.8" font-family="Helvetica,sans-Serif" font-size="11.00"> </text>
<text xml:space="preserve" text-anchor="start" x="431" y="-205.8" font-family="Helvetica,sans-Serif" font-size="9.00" fill="#e67e22">= _military_stipend(row)</text>
<polygon fill="#b8cce8" stroke="none" points="577.25,-200.25 577.25,-218.25 584.25,-218.25 584.25,-200.25 577.25,-200.25" />
<text xml:space="preserve" text-anchor="start" x="579.25" y="-206.25" font-family="Helvetica,sans-Serif" font-size="11.00"> </text>
<polygon fill="#b8cce8" stroke="none" points="337.75,-182.25 337.75,-200.25 344.75,-200.25 344.75,-182.25 337.75,-182.25" />
<text xml:space="preserve" text-anchor="start" x="339.75" y="-188.25" font-family="Helvetica,sans-Serif" font-size="11.00"> </text>
<polygon fill="#dbe4f0" stroke="none" points="344.75,-182.25 344.75,-200.25 577.25,-200.25 577.25,-182.25 344.75,-182.25" />
<text xml:space="preserve" text-anchor="start" x="347.75" y="-188.25" font-family="Helvetica,sans-Serif" font-size="11.00" fill="#1a1a2e"> military </text>
<polygon fill="#b8cce8" stroke="none" points="577.25,-182.25 577.25,-200.25 584.25,-200.25 584.25,-182.25 577.25,-182.25" />
<text xml:space="preserve" text-anchor="start" x="579.25" y="-188.25" font-family="Helvetica,sans-Serif" font-size="11.00"> </text>
<polygon fill="#b8cce8" stroke="none" points="337.75,-164.25 337.75,-182.25 344.75,-182.25 344.75,-164.25 337.75,-164.25" />
<text xml:space="preserve" text-anchor="start" x="339.75" y="-170.25" font-family="Helvetica,sans-Serif" font-size="11.00"> </text>
<polygon fill="#dbe4f0" stroke="none" points="344.75,-164.25 344.75,-182.25 577.25,-182.25 577.25,-164.25 344.75,-164.25" />
<text xml:space="preserve" text-anchor="start" x="347.75" y="-170.25" font-family="Helvetica,sans-Serif" font-size="11.00" fill="#1a1a2e"> service_years </text>
<polygon fill="#b8cce8" stroke="none" points="577.25,-164.25 577.25,-182.25 584.25,-182.25 584.25,-164.25 577.25,-164.25" />
<text xml:space="preserve" text-anchor="start" x="579.25" y="-170.25" font-family="Helvetica,sans-Serif" font-size="11.00"> </text>
<polygon fill="#b8cce8" stroke="none" points="337.75,-146.25 337.75,-164.25 344.75,-164.25 344.75,-146.25 337.75,-146.25" />
<text xml:space="preserve" text-anchor="start" x="339.75" y="-152.25" font-family="Helvetica,sans-Serif" font-size="11.00"> </text>
<polygon fill="#dbe4f0" stroke="none" points="344.75,-146.25 344.75,-164.25 577.25,-164.25 577.25,-146.25 344.75,-146.25" />
<text xml:space="preserve" text-anchor="start" x="347.75" y="-152.25" font-family="Helvetica,sans-Serif" font-size="11.00" fill="#1a1a2e"> military_stipend_rate_per_year </text>
<polygon fill="#b8cce8" stroke="none" points="577.25,-146.25 577.25,-164.25 584.25,-164.25 584.25,-146.25 577.25,-146.25" />
<text xml:space="preserve" text-anchor="start" x="579.25" y="-152.25" font-family="Helvetica,sans-Serif" font-size="11.00"> </text>
<polygon fill="none" stroke="#c0392b" stroke-width="3" points="336.25,-144.75 336.25,-433.75 585.75,-433.75 585.75,-144.75 336.25,-144.75" />
</g>

<g id="edge1" class="edge">
<title>CommissionOrder-&gt;Employee</title>
<path fill="none" stroke="#e0e0e0" stroke-width="0.7" d="M310.64,-46.72C285.76,-58.56 266.39,-75.7 276,-99.25 287.71,-127.95 306.1,-154.65 326.84,-178.42" />
<polygon fill="#e0e0e0" stroke="#e0e0e0" stroke-width="0.7" points="310.64,-46.72 321.61,-46.81 315.43,-44.61 319.58,-42.79 319.58,-42.79 319.58,-42.79 315.43,-44.61 317.98,-38.58 310.64,-46.72" />
</g>

<g id="edge7" class="edge">
<title>CommissionOrder:CommissionOrder_amount_w-&gt;Employee:Employee_commission_total_w</title>
<path fill="none" stroke="#444444" stroke-width="2" stroke-dasharray="5,2" d="M330,-16C251.25,-16 253.34,-352.3 324.7,-386.46" />
<polygon fill="#444444" stroke="#444444" stroke-width="2" points="334.38,-388.7 323.62,-390.83 331.77,-388.61 324.52,-386.93 324.63,-386.44 324.75,-385.96 331.99,-387.63 325.65,-382.06 334.38,-388.7" />
<text xml:space="preserve" text-anchor="middle" x="281.82" y="-89.75" font-family="Helvetica,sans-Serif" font-size="10.00" fill="#444444">7</text>
</g>

<g id="node3" class="node">
<title>Department</title>
<polygon fill="#4a6fa5" stroke="none" points="247.62,-562.5 247.62,-578.5 328.38,-578.5 328.38,-562.5 247.62,-562.5" />
<text xml:space="preserve" text-anchor="start" x="254.25" y="-567.05" font-family="Helvetica,sans-Serif" font-weight="bold" font-size="11.00" fill="white"> Department </text>
<polygon fill="#b8cce8" stroke="none" points="247.62,-544.5 247.62,-562.5 254.62,-562.5 254.62,-544.5 247.62,-544.5" />
<text xml:space="preserve" text-anchor="start" x="249.62" y="-550.5" font-family="Helvetica,sans-Serif" font-size="11.00"> </text>
<polygon fill="#dbe4f0" stroke="none" points="254.62,-544.5 254.62,-562.5 321.38,-562.5 321.38,-544.5 254.62,-544.5" />
<text xml:space="preserve" text-anchor="start" x="257.62" y="-550.5" font-family="Helvetica,sans-Serif" font-size="11.00" fill="#1a1a2e"> total_salary </text>
<polygon fill="#b8cce8" stroke="none" points="321.38,-544.5 321.38,-562.5 328.38,-562.5 328.38,-544.5 321.38,-544.5" />
<text xml:space="preserve" text-anchor="start" x="323.38" y="-550.5" font-family="Helvetica,sans-Serif" font-size="11.00"> </text>
<polygon fill="none" stroke="#c0392b" stroke-width="3" points="246.12,-543 246.12,-580 329.88,-580 329.88,-543 246.12,-543" />
</g>

<g id="edge2" class="edge">
<title>Employee-&gt;Department</title>
<path fill="none" stroke="#e0e0e0" stroke-width="0.7" d="M318.11,-356.15C269.63,-386.32 220.96,-427.14 194,-479.25 180.47,-505.4 208.09,-526.77 236.83,-541.01" />
<polygon fill="#e0e0e0" stroke="#e0e0e0" stroke-width="0.7" points="318.09,-356.16 328.97,-354.79 322.56,-353.43 326.43,-351.07 326.43,-351.07 326.43,-351.07 322.56,-353.43 324.29,-347.11 318.09,-356.16" />
</g>

<g id="edge8" class="edge">
<title>Employee:Employee_salary_w-&gt;Department:Department_total_salary_w</title>
<path fill="none" stroke="#444444" stroke-width="2" stroke-dasharray="5,2" d="M336.75,-407.25C269.28,-407.25 252.91,-464.85 251.27,-531.42" />
<polygon fill="#444444" stroke="#444444" stroke-width="2" points="251.15,-541.06 246.77,-531.01 250.68,-538.49 250.77,-531.06 251.27,-531.06 251.77,-531.07 251.68,-538.51 255.77,-531.12 251.15,-541.06" />
<text xml:space="preserve" text-anchor="middle" x="258.73" y="-481" font-family="Helvetica,sans-Serif" font-size="10.00" fill="#444444">8</text>
</g>

<g id="node5" class="node">
<title>SysConfig</title>
<polygon fill="#4a6fa5" stroke="none" points="413.12,-571.5 413.12,-587.5 586.88,-587.5 586.88,-571.5 413.12,-571.5" />
<text xml:space="preserve" text-anchor="start" x="469.62" y="-576.05" font-family="Helvetica,sans-Serif" font-weight="bold" font-size="11.00" fill="white"> SysConfig </text>
<polygon fill="#b8cce8" stroke="none" points="413.12,-553.5 413.12,-571.5 420.12,-571.5 420.12,-553.5 413.12,-553.5" />
<text xml:space="preserve" text-anchor="start" x="415.12" y="-559.5" font-family="Helvetica,sans-Serif" font-size="11.00"> </text>
<polygon fill="#dbe4f0" stroke="none" points="420.12,-553.5 420.12,-571.5 579.88,-571.5 579.88,-553.5 420.12,-553.5" />
<text xml:space="preserve" text-anchor="start" x="423.12" y="-559.5" font-family="Helvetica,sans-Serif" font-size="11.00" fill="#1a1a2e"> max_hourly_weekly_salary </text>
<polygon fill="#b8cce8" stroke="none" points="579.88,-553.5 579.88,-571.5 586.88,-571.5 586.88,-553.5 579.88,-553.5" />
<text xml:space="preserve" text-anchor="start" x="581.88" y="-559.5" font-family="Helvetica,sans-Serif" font-size="11.00"> </text>
<polygon fill="#b8cce8" stroke="none" points="413.12,-535.5 413.12,-553.5 420.12,-553.5 420.12,-535.5 413.12,-535.5" />
<text xml:space="preserve" text-anchor="start" x="415.12" y="-541.5" font-family="Helvetica,sans-Serif" font-size="11.00"> </text>
<polygon fill="#dbe4f0" stroke="none" points="420.12,-535.5 420.12,-553.5 579.88,-553.5 579.88,-535.5 420.12,-535.5" />
<text xml:space="preserve" text-anchor="start" x="423.12" y="-541.5" font-family="Helvetica,sans-Serif" font-size="11.00" fill="#1a1a2e"> military_stipend_rate_per_year </text>
<polygon fill="#b8cce8" stroke="none" points="579.88,-535.5 579.88,-553.5 586.88,-553.5 586.88,-535.5 579.88,-535.5" />
<text xml:space="preserve" text-anchor="start" x="581.88" y="-541.5" font-family="Helvetica,sans-Serif" font-size="11.00"> </text>
<polygon fill="none" stroke="#4a6fa5" points="412.12,-534.5 412.12,-588.5 587.88,-588.5 587.88,-534.5 412.12,-534.5" />
</g>

<g id="edge3" class="edge">
<title>Employee-&gt;SysConfig</title>
<path fill="none" stroke="#e0e0e0" stroke-width="0.7" d="M483.93,-449.13C488.43,-480.33 492.68,-509.77 495.68,-530.55" />
<polygon fill="#e0e0e0" stroke="#e0e0e0" stroke-width="0.7" points="483.92,-449.08 486.95,-438.54 483.17,-443.9 482.53,-439.42 482.53,-439.42 482.53,-439.42 483.17,-443.9 478.04,-439.83 483.92,-449.08" />
</g>

<g id="edge5" class="edge">
<title>SysConfig:SysConfig_max_hourly_weekly_salary_w-&gt;Employee:Employee_max_hourly_weekly_salary_w</title>
<path fill="none" stroke="#444444" stroke-width="1.8" d="M412.12,-562.5C390.51,-562.5 356.26,-509.91 346.75,-490.5 312.41,-420.41 296.9,-277.12 325.78,-249.8" />
<polygon fill="#444444" stroke="#444444" stroke-width="1.8" points="334.72,-246.09 327.21,-254.08 332.29,-247.54 325.64,-250.3 325.49,-249.93 325.34,-249.56 331.98,-246.8 323.76,-245.77 334.72,-246.09" />
<text xml:space="preserve" text-anchor="middle" x="349.38" y="-481" font-family="Helvetica,sans-Serif" font-size="10.00" fill="#444444">1</text>
</g>

<g id="edge6" class="edge">
<title>SysConfig:SysConfig_military_stipend_rate_per_year_w-&gt;Employee:Employee_military_stipend_rate_per_year_w</title>
<path fill="none" stroke="#444444" stroke-width="1.8" d="M416.62,-534.5C416.62,-479.54 356.47,-490.93 337.75,-439.25 296.18,-324.52 216.07,-166.18 324.86,-155.79" />
<polygon fill="#444444" stroke="#444444" stroke-width="1.8" points="334.56,-155.35 324.77,-160.3 331.77,-155.88 324.59,-156.2 324.57,-155.8 324.55,-155.4 331.74,-155.08 324.37,-151.31 334.56,-155.35" />
<text xml:space="preserve" text-anchor="middle" x="392.97" y="-481" font-family="Helvetica,sans-Serif" font-size="10.00" fill="#444444">2</text>
</g>
<path d="M585.75,-386.25 C607.75,-386.25 607.75,-403.8 585.75,-403.8" stroke="#445544" stroke-width="1.2" fill="none" /><polygon points="585.75,-403.8 589.75,-407.8 589.75,-399.8" stroke="#445544" fill="#445544" /><text x="610.8" y="-391.0" font-family="Helvetica,sans-Serif" font-size="10" fill="#445544">3</text><path d="M585.75,-314.25 C631.75,-314.25 631.75,-403.8 585.75,-403.8" stroke="#445544" stroke-width="1.2" fill="none" /><polygon points="585.75,-403.8 589.75,-407.8 589.75,-399.8" stroke="#445544" fill="#445544" /><text x="634.8" y="-355.0" font-family="Helvetica,sans-Serif" font-size="10" fill="#445544">3</text><path d="M585.75,-260.25 C655.75,-260.25 655.75,-295.8 585.75,-295.8" stroke="#445544" stroke-width="1.2" fill="none" /><polygon points="585.75,-295.8 589.75,-299.8 589.75,-291.8" stroke="#445544" fill="#445544" /><text x="658.8" y="-274.0" font-family="Helvetica,sans-Serif" font-size="10" fill="#445544">4</text><path d="M585.75,-403.8 C679.75,-403.8 679.75,-223.8 585.75,-223.8" stroke="#445544" stroke-width="1.2" fill="none" /><polygon points="585.75,-223.8 589.75,-227.8 589.75,-219.8" stroke="#445544" fill="#445544" /><text x="682.8" y="-309.8" font-family="Helvetica,sans-Serif" font-size="10" fill="#445544">5</text><path d="M585.75,-152.25 C703.75,-152.25 703.75,-205.8 585.75,-205.8" stroke="#445544" stroke-width="1.2" fill="none" /><polygon points="585.75,-205.8 589.75,-209.8 589.75,-201.8" stroke="#445544" fill="#445544" /><text x="706.8" y="-175.0" font-family="Helvetica,sans-Serif" font-size="10" fill="#445544">6</text></g>
</svg>